<?xml version="1.0" encoding="UTF-8"?>
<svg version="1.1" xmlns="http://www.w3.org/2000/svg" width="200" height="200">
<path d="M0 0 C2.12600297 1.7109262 3.54649931 3.50706113 4.765625 5.9453125 C8.04579104 37.13377646 -7.56253713 76.60423123 -25.671875 101.4453125 C-50.00604736 131.32737007 -80.21323274 147.89845944 -117.421875 156.7578125 C-118.27595947 156.96519043 -119.13004395 157.17256836 -120.01000977 157.38623047 C-127.71244263 159.11375634 -135.36746582 159.56067274 -143.234375 159.9453125 C-143.48606445 160.94908936 -143.73775391 161.95286621 -143.99707031 162.98706055 C-144.93845387 166.72706236 -145.89665097 170.46258756 -146.85986328 174.19702148 C-147.27361077 175.81076609 -147.68285139 177.42567344 -148.08740234 179.04174805 C-148.67130874 181.37091768 -149.27155134 183.69535847 -149.875 186.01953125 C-150.05121887 186.73743332 -150.22743774 187.45533539 -150.40899658 188.19499207 C-151.57130489 192.59086914 -152.77440091 195.91654414 -156.234375 198.9453125 C-159.52001953 199.67724609 -159.52001953 199.67724609 -163.234375 198.9453125 C-166.06920035 197.04792661 -168.32011279 194.69937809 -170.6640625 192.234375 C-171.67776413 191.20937393 -171.67776413 191.20937393 -172.71194458 190.16366577 C-174.86135743 187.98177232 -176.98493441 185.77649933 -179.109375 183.5703125 C-180.560933 182.09220951 -182.01404213 180.61562808 -183.46875 179.140625 C-186.11713071 176.44195931 -188.76243858 173.74066421 -191.38623047 171.01806641 C-191.91360809 170.47179596 -192.44098572 169.92552551 -192.98434448 169.36270142 C-194.85121919 167.24588309 -195.24174116 165.8969063 -195.671875 163.0703125 C-195.234375 159.9453125 -195.234375 159.9453125 -192.69482422 157.89746094 C-189.02481881 155.82709525 -185.47854547 154.61867633 -181.4296875 153.5859375 C-180.3437178 153.29478058 -180.3437178 153.29478058 -179.23580933 152.9977417 C-176.94629478 152.38644988 -174.65307793 151.79067255 -172.359375 151.1953125 C-170.79660347 150.78097071 -169.23410015 150.36561586 -167.671875 149.94921875 C-163.86237543 148.93617967 -160.04947972 147.93702386 -156.234375 146.9453125 C-156.25258301 145.7397168 -156.27079102 144.53412109 -156.28955078 143.29199219 C-156.28740444 139.8957308 -156.00344968 136.74066247 -155.3515625 133.3984375 C-155.1570752 132.39868896 -154.96258789 131.39894043 -154.76220703 130.36889648 C-154.43905518 128.79797241 -154.43905518 128.79797241 -154.109375 127.1953125 C-153.88491699 126.09711182 -153.66045898 124.99891113 -153.42919922 123.86743164 C-145.1216163 84.44495311 -126.66596639 48.24191824 -92.10546875 25.61157227 C-73.80644858 13.92635383 -54.34653703 6.82369231 -33.234375 1.9453125 C-32.17259033 1.6975708 -32.17259033 1.6975708 -31.08935547 1.44482422 C-8.03758975 -3.79396719 -8.03758975 -3.79396719 0 0 Z M-24.421875 13.5703125 C-25.70952759 13.83110596 -25.70952759 13.83110596 -27.02319336 14.09716797 C-33.5347357 15.47057167 -39.92116317 17.16723699 -46.296875 19.0703125 C-47.14725342 19.32377441 -47.99763184 19.57723633 -48.8737793 19.83837891 C-52.43700255 20.93860987 -55.09590593 21.85299978 -58.234375 23.9453125 C-57.71892671 29.31972001 -56.4207583 33.20096816 -53.921875 38.0703125 C-53.32761719 39.24851562 -52.73335937 40.42671875 -52.12109375 41.640625 C-46.30012722 51.83635519 -36.27723621 58.26435876 -25.234375 61.9453125 C-22.51763636 62.11864954 -22.51763636 62.11864954 -20.234375 61.9453125 C-17.15419327 55.53236235 -14.93765479 49.12681754 -13.109375 42.2578125 C-12.85075684 41.2975415 -12.59213867 40.33727051 -12.32568359 39.34790039 C-9.9614702 30.33197338 -8.06245222 21.31510379 -8.234375 11.9453125 C-13.84440896 11.75057167 -18.93163027 12.44463627 -24.421875 13.5703125 Z M-97.234375 45.9453125 C-98.01554687 46.55890625 -98.79671875 47.1725 -99.6015625 47.8046875 C-110.70823138 57.05365732 -118.6315822 69.23352551 -125.234375 81.9453125 C-125.81703125 83.03457031 -126.3996875 84.12382813 -127 85.24609375 C-134.90225393 100.96161226 -142.58782303 121.152251 -142.484375 138.9453125 C-142.48953125 139.8528125 -142.4946875 140.7603125 -142.5 141.6953125 C-142.44611335 144.14645949 -142.44611335 144.14645949 -140.234375 145.9453125 C-132.73669783 147.04741678 -125.33655651 145.13838034 -118.109375 143.3203125 C-116.46014038 142.91208252 -116.46014038 142.91208252 -114.77758789 142.49560547 C-77.64935782 133.04537747 -47.22117925 112.68989828 -27.3515625 79.44140625 C-25.87493323 76.89664623 -25.87493323 76.89664623 -27.234375 73.9453125 C-29.91443329 72.71613988 -29.91443329 72.71613988 -33.171875 71.6953125 C-47.59882684 66.38758022 -59.41891936 55.77846283 -66.234375 41.9453125 C-68.00421923 37.98311481 -69.66362431 33.99034304 -71.234375 29.9453125 C-79.84228372 29.9453125 -90.80055066 40.81975884 -97.234375 45.9453125 Z M-168.421875 163.9453125 C-169.07607422 164.13609375 -169.73027344 164.326875 -170.40429688 164.5234375 C-172.01537013 164.99382385 -173.62501567 165.46909521 -175.234375 165.9453125 C-173.64769922 169.84817017 -171.10087019 172.28052232 -168.109375 175.1953125 C-167.19929688 176.08734375 -166.28921875 176.979375 -165.3515625 177.8984375 C-164.65289062 178.57390625 -163.95421875 179.249375 -163.234375 179.9453125 C-161.54537486 176.83902094 -160.52810833 173.79326199 -159.609375 170.3828125 C-159.34898437 169.43277344 -159.08859375 168.48273438 -158.8203125 167.50390625 C-158.12276057 164.89540089 -158.12276057 164.89540089 -158.234375 161.9453125 C-161.92607978 161.9453125 -164.88034735 162.90559796 -168.421875 163.9453125 Z " fill="#FFFFFF" transform="translate(195.234375,1.0546875)"/>
<path d="M0 0 C3.5 0.4375 3.5 0.4375 5.5 2.0625 C6.87076507 5.31806705 6.44753604 7.05344272 5.5 10.4375 C4.96375 11.4275 4.4275 12.4175 3.875 13.4375 C2.28939219 16.37062343 2.28939219 16.37062343 2.4375 19.625 C3.29533054 22.66065641 3.29533054 22.66065641 6.1875 24.4375 C10.18373816 25.64391152 11.7680876 25.17905912 15.5 23.4375 C16.49 22.7775 17.48 22.1175 18.5 21.4375 C21.5875593 21.11587924 23.64015561 20.95025485 26.375 22.5 C28.21902527 25.6758213 28.05685636 27.84887015 27.5 31.4375 C22.64218481 36.52126008 17.7817685 38.71418566 10.8125 38.9375 C4.13719967 38.8222667 -0.4082084 36.68226389 -5.5 32.4375 C-10.36625014 27.05493685 -10.83980955 21.50961463 -10.7890625 14.5234375 C-10.17213327 7.9373011 -7.04109526 0.88013691 0 0 Z " fill="#FFFFFF" transform="translate(104.5,63.5625)"/>
<path d="M0 0 C2.4375 2.1875 2.4375 2.1875 4 5 C3.93148663 7.87756134 3.3436338 9.427277 1.875 11.875 C-1.18336891 13.71002135 -3.65608204 12.79038061 -7 12 C-9 10 -9 10 -9.3125 6.5625 C-9 3 -9 3 -7.875 1.0625 C-5.0300175 -0.54965675 -3.2088071 -0.52388687 0 0 Z " fill="#FFFFFF" transform="translate(165,23)"/>
</svg>
